<?xml version="1.0" encoding="utf-8" ?><svg xmlns="http://www.w3.org/2000/svg" xmlns:xlink="http://www.w3.org/1999/xlink" width="1024" height="1024" viewBox="0 0 1024 1024"><path d="M250.637 435.474C248.112 442.422 248.12 442.294 248.408 449.326C245.959 448.126 243.635 443.419 242.864 440.901C237.542 423.517 243.419 403.306 251.184 387.732C271.068 347.849 314.817 326.306 347.563 297.596C360.241 286.352 372.559 274.709 384.497 262.684C413.814 233.492 444.617 201.103 484.975 187.723C520.319 176.006 557.007 180.725 589.626 197.917C621.268 214.595 643.775 237.651 664.797 266.23C675.923 281.355 689.779 300.995 702.357 314.568C716.635 329.976 733.995 345.121 749.518 359.182C761.198 369.762 774.87 381.202 784.367 393.593C790.975 402.162 796.02 411.83 799.27 422.151C804.05 437.29 804.822 453.712 798.194 468.407L797.525 468.974C795.707 467.686 796.288 467.703 794.38 467.606C790.625 470.38 789.389 483.893 779.972 489.209C773.571 494.367 767.839 499.357 760.11 502.427C756.779 504.097 751.213 505.067 747.46 505.816C746.225 506.977 744.402 508.84 743.059 509.718C737.957 512.336 727.325 514.88 721.371 516.103C718.489 517.249 709.521 516.605 706.012 516.429C704.585 517.559 703.024 518.911 701.436 519.728C696.766 521.526 686.273 522.803 680.755 524.201C676.955 524.481 673.841 524.42 670.037 524.928C667.949 525.207 664.948 526.251 663.609 526.357C656.537 527.142 648.442 528.637 641.597 527.257C637.415 526.437 634.7 525.218 631.402 528.7C628.797 529.272 625.73 529.087 623.045 528.876C619.715 528.899 615.792 529.022 612.531 528.885C606.87 528.646 604.737 527.391 599.001 528.09C593.179 527.741 585.735 526.263 579.883 525.253C580.981 533.433 591.763 550.147 596.43 557.441C583.278 565.369 586.27 560.373 572.962 560.808C569.251 560.93 566.132 566.876 560.628 565.286C555.021 563.667 553.536 559.994 549.371 556.936C545.412 556.286 543.195 556.127 539.125 556.18C528.516 534.323 521.22 559.066 510.128 553.377C506.594 549.844 505.783 543.668 501.931 538.355C501.916 542.73 502.088 545.335 502.559 549.699C499.811 544.696 502.418 543.341 495.995 538.508C489.872 541.822 486.044 546.189 482.15 551.987C474.12 560.091 470.142 557.915 468.228 547.733C463.858 547.978 451.748 549.248 448.739 545.721C448.672 544.86 448.483 544.302 449.226 543.616C458.049 535.471 464.602 528.139 470.56 517.471C471.046 515.844 471.149 516.551 470.78 515.152C464.182 515.458 457.622 516.603 451.006 516.469C451.399 515.177 451.792 514.568 451.323 513.357C449.547 512.965 447.051 514.511 444.923 515.376C441.537 517.707 429.305 515.514 424.841 514.984L430.557 510.4C432.015 508.108 434.375 505.88 436.294 503.886C433.527 504.556 430.694 505.442 427.954 506.246C418.024 511.668 414.194 514.672 402.457 511.206C400.445 510.612 395.72 510.334 394.221 509.19C395.14 508.522 396.017 507.873 396.963 507.241C397.611 506.459 397.754 506.394 398.608 505.897L399.396 505.446L399.477 504.55C397.602 503.262 393.646 503.898 391.389 504.171C378.485 507.91 367.385 503.957 354.922 499.397L354.693 499.019C355.842 497.968 370.491 494.844 373.275 494.239C365.411 493.812 358.174 494.561 350.354 494.488C346.403 495.021 342.245 495.71 338.362 494.67C335.231 493.831 321.33 490.304 319.728 487.899L320.88 487.487C324.689 486.856 327.371 486.321 331.107 485.369C323.288 484.543 309.981 484.23 302.822 481.949C295.969 480.318 286.985 475.855 281.508 471.467L280.573 470.671C281.559 469.551 283.036 470.541 285.632 469.45L285.444 468.805C282.454 466.956 277.147 466.057 273.387 464.231C271.943 463.564 270.529 462.962 269.097 462.247C263.101 459.282 258.551 454.029 256.472 447.671C255.508 444.063 256.869 442.055 252.435 440.539C250.65 439.928 253.03 434.321 252.948 432.305L250.637 435.474Z"/><path fill="#28333E" d="M250.637 435.474C248.112 442.422 248.12 442.294 248.408 449.326C245.959 448.126 243.635 443.419 242.864 440.901C237.542 423.517 243.419 403.306 251.184 387.732C271.068 347.849 314.817 326.306 347.563 297.596C360.241 286.352 372.559 274.709 384.497 262.684C413.814 233.492 444.617 201.103 484.975 187.723C520.319 176.006 557.007 180.725 589.626 197.917C621.268 214.595 643.775 237.651 664.797 266.23C675.923 281.355 689.779 300.995 702.357 314.568C716.635 329.976 733.995 345.121 749.518 359.182C761.198 369.762 774.87 381.202 784.367 393.593C790.975 402.162 796.02 411.83 799.27 422.151C804.05 437.29 804.822 453.712 798.194 468.407C797.133 466.394 797.096 462.679 796.468 460.329C789.12 432.828 754.679 418.934 730.935 409.386C718.728 404.446 706.344 399.955 693.808 395.923C663.17 386.194 635.661 380.718 604.132 375.742C523.496 362.892 439.757 362.945 359.812 380.347C332.001 386.401 260.034 405.293 250.637 435.474Z"/><path fill="#F8B158" d="M444.357 287.608C447.474 287.411 450.508 287.624 453.196 288.883C476.729 299.913 479.104 312.67 453.807 323.688C436.701 331.139 424.975 334.286 407.562 336.419C387.951 337.882 365.005 336.628 390.273 315.772C407.688 301.399 421.949 292.056 444.357 287.608Z"/><path fill="#F8B158" d="M519.867 265.209C531.412 264.145 545.791 268.612 555.788 274.275C559.942 276.629 566.005 282.496 562.065 287.386C556.822 293.895 542.725 295.976 535.058 297.234C523.719 298.759 506.27 299.48 496.343 292.6C490.808 288.763 489.814 281.765 494.215 276.472C500.525 268.882 510.377 266.139 519.867 265.209Z"/><path fill="#F8B158" d="M554.808 316.666C564.258 315.788 581.36 320.032 588.722 326.121C599.905 335.369 599.76 349.834 582.812 351.602C570.746 351.334 529.365 345.324 541.759 322.422C543.797 318.657 550.696 317.246 554.808 316.666Z"/><path fill="#F8B158" d="M695.244 336.973C712.53 337.14 727.604 351.639 739.128 363.34C744.048 368.336 753.432 378.29 750.826 385.812C747.172 385.403 743.802 384.37 740.407 382.975C727.961 377.861 689.282 353.274 695.244 336.973Z"/><path fill="#F8B158" d="M626.504 333.099C628.016 333.012 629.792 333.211 631.258 333.136C640.885 332.641 677.765 348.661 676.611 358.918C675.179 361.696 673.748 361.913 670.77 362.958C660.285 363.139 648.642 359.902 638.457 355.992C631.816 353.443 617.065 345.509 620.628 335.812C621.242 334.141 624.749 333.524 626.504 333.099Z"/><path fill="#F8B158" d="M572.49 239.068C579.072 238.529 584.451 239.349 590.533 242.072C597.982 245.408 626.642 262.264 607.056 269.038C594.446 269.562 563.757 262.578 566.208 244.051C566.489 241.927 570.712 239.854 572.49 239.068Z"/><path fill="#F8B158" d="M489.354 235.192C493.41 234.269 506.955 234.592 507.092 240.433C507.386 252.953 485.658 256.923 477.117 258.372C469.79 259.095 451.349 259.221 460.541 247.042C466.606 239.006 480.019 236.331 489.354 235.192Z"/><path fill="#F8B158" d="M357.466 349.191C360.825 348.893 365.738 348.947 367.565 352.142C367.696 355.662 365.463 358.009 363.191 360.588C355.697 369.096 339.409 377.116 328.103 377.588C323.9 377.088 318.034 376.559 316.771 371.854C317.038 370.412 317.322 369.576 318.3 368.417C327.392 357.649 343.946 350.83 357.466 349.191Z"/><path fill="#F8B158" d="M637.228 280.384C639.296 280.488 641.739 281.013 643.764 281.44C655.532 283.922 684.456 303.912 680.268 317.562C668.511 315.551 659.248 308.667 650.196 301.268C644.253 296.41 634.331 288.982 637.228 280.384Z"/><path fill="#F8B158" d="M540.881 197.049C546.104 196.88 552.16 197.357 557.236 198.573C566.16 200.711 602.922 212.592 600.471 223.594C596.64 223.356 592.906 222.692 589.17 221.824C580.408 219.787 544.386 207.778 540.93 200.246C540.314 198.904 540.55 198.424 540.881 197.049Z"/><path fill="#F8B158" d="M462.555 346.709C467.363 346.013 480.641 345.825 482.902 351.006C482.826 360.184 459.7 360.498 453.614 360.597C449.366 360.623 432.757 361.127 431.731 356.221C434.748 349.41 455.852 347.351 462.555 346.709Z"/><path fill="#F8B158" d="M448.262 226.551C450.737 226.656 451.902 226.543 453.436 228.618C453.696 230.356 453.257 231.748 452.239 233.176C444.146 244.52 432.167 251.181 419.115 254.497C418.473 254.479 417.832 254.444 417.193 254.392C415.276 254.224 414.618 254.048 413.381 252.597C411.986 247.461 420.086 241.219 423.666 238.271C430.811 232.387 439.371 228.849 448.262 226.551Z"/><path fill="#F8B158" d="M499.663 201.21C503.85 201.345 515.598 201.767 516.6 206.824C514.191 214.213 497.404 216.046 490.878 216.666C486.389 217.112 475.245 218.055 473.459 212.929C473.46 203.924 493.14 201.482 499.663 201.21Z"/><path fill="#F8B158" d="M393.184 279.476C394.967 279.565 395.619 279.771 396.586 281.218C396.565 282.517 396.336 283.031 395.687 284.155C388.13 297.25 370.906 307.104 356.983 311.42C355.319 311.121 355.35 311.218 353.97 310.293C353.071 306.786 357.136 303.458 359.471 301.129C369.097 291.529 380.34 284.027 393.184 279.476Z"/><path fill="#F8B158" d="M598.415 297.124C599.612 297.04 600.812 296.997 602.012 296.995C609.423 297.032 632.313 302.492 632.126 311.542C630.791 314.053 628.945 314.513 626.336 315.405C616.271 314.846 598.616 313.518 593.252 302.832C591.77 299.88 596.401 297.979 598.415 297.124Z"/><path fill="#F8B158" d="M499.605 323.104C504.893 323.06 525.275 325.281 522.224 336.46C521.642 338.594 517.144 339.991 514.864 340.492C510.231 340.434 502.337 340.48 498.224 338.45C488.964 333.88 490.62 326.338 499.605 323.104Z"/><path fill="#F8B158" d="M349.444 323.608C351.01 323.458 353.305 323.497 354.578 324.49C356.613 331.679 327.266 346.096 321.1 348.108C319.341 348.562 317.399 348.704 315.672 348.071L315.28 347.147C317.227 337.593 340.13 325.685 349.444 323.608Z"/><path fill="#F8B158" d="M295.338 353.011C297.67 353.093 298.323 352.969 299.553 355.027C300.234 363.05 284.039 374.802 277.273 377.813C275.482 378.053 274.126 377.507 273.008 376.176C272.89 368.225 288.244 356.135 295.338 353.011Z"/><path fill="#F8B158" d="M401.624 357.759C404.771 357.956 406.981 358.322 408.895 360.937C409.875 367.062 393.809 369.239 389.408 369.626C386.767 369.606 380.804 369.834 380.137 366.612C382.394 360.561 395.846 358.246 401.624 357.759Z"/><path fill="#F8B158" d="M750.798 404.361C758.18 405.085 776.412 413.26 772.646 422.479C765.361 421.023 753.08 415.422 749.796 407.936C749.253 406.7 750.209 405.441 750.798 404.361Z"/><path fill="#F8B158" d="M609.38 364.463C614.157 364.893 631.306 369.689 632.052 374.976C630.699 376.398 630.789 375.991 628.498 376.546C627.251 376.562 626.003 376.539 624.758 376.477C620.153 376.219 603.219 373.892 604.689 367.299C605.979 365.626 607.367 365.304 609.38 364.463Z"/><path fill="#F8B158" d="M533.696 222.598C538.198 222.484 554.638 221.804 551.561 230.551C550.95 232.29 547.938 233.074 546.318 233.596C540.683 233.002 532.123 232.28 528.201 227.808C527.313 224.247 530.915 223.585 533.696 222.598Z"/><path fill="#F8B158" d="M654.217 371.377C660.078 371.692 673.87 375.849 670.479 383.98C664.906 382.833 650.009 379.381 654.217 371.377Z"/><path fill="#F8B158" d="M427.021 263.5C428.344 263.602 429.593 264.245 430.523 265.182C431.049 270.695 420.828 274.899 416.565 276.026C407.902 269.782 422.445 265.041 427.021 263.5Z"/><path fill="#F8B158" d="M632.115 252.387C637.675 252.638 642.917 255.046 646.728 259.101C649.087 261.606 650.599 263.631 650.588 267.016C643.587 265.772 633.166 260.15 632.115 252.387Z"/><path fill="#F8B158" d="M271.012 392.872C272.416 393.052 272.559 393.236 273.868 393.794C277.268 398.396 266.07 405.328 262.742 407.487C260.972 407.507 260.923 407.618 259.298 406.78C257.258 401.894 267.384 394.937 271.012 392.872Z"/><path fill="#F8B158" d="M765.286 387.404C774.081 387.154 776.603 394.589 778.802 401.766C770.609 400.867 766.886 394.743 765.286 387.404Z"/><path fill="#F8B158" d="M691.006 379.704C695.636 380.78 704.51 383.733 701.246 389.957C695.724 389.355 686.497 387.19 691.006 379.704Z"/><path fill="#F8B158" d="M300.428 382.475C301.756 382.533 301.904 382.727 303.145 383.284C304.696 386.963 295.445 391.314 292.662 392.789C290.371 392.479 290.421 392.534 289.29 391.242L289.378 389.951C291.674 385.924 296.328 384.064 300.428 382.475Z"/><path fill="#F8B158" d="M612.137 232.873C619.102 233.297 624.18 234.41 625.284 242.019C617.506 242.073 613.681 241.22 612.137 232.873Z"/><path fill="#F8B158" d="M719.18 391.685C726.022 392.949 729.372 394.939 730.734 401.828C723.482 400.995 719.287 399.707 719.18 391.685Z"/><path fill="#0AD9D9" d="M622.498 465.116C666.606 483.02 731.711 497.17 779.288 488.475C779.975 488.943 779.817 488.648 779.972 489.209C773.571 494.367 767.839 499.357 760.11 502.427C746.866 504.908 735.603 502.925 722.285 500.779C685.45 494.844 653.665 484.899 621.29 466.437L622.498 465.116Z"/><path fill="#0AD9D9" d="M256.472 447.671L257.298 447.88C261.359 448.929 265.476 450.568 269.594 451.7C313.016 463.639 359.797 463.943 404.29 458.929C413.96 457.839 423.466 455.549 433.035 454.076C427.476 456.72 416.884 459.357 410.739 460.868C371.357 470.553 313.02 473.171 273.387 464.231C271.943 463.564 270.529 462.962 269.097 462.247C263.101 459.282 258.551 454.029 256.472 447.671Z"/><path fill="#0AD9D9" d="M604.179 460.911C636.866 481.557 665.791 494.236 703.835 502.316C707.664 503.129 742.416 509.355 743.059 509.718C737.957 512.336 727.325 514.88 721.371 516.103C708.171 515.282 704.053 513.437 691.501 510C655.677 500.187 631.508 485.031 602.859 462.097L604.179 460.911Z"/><path fill="#0AD9D9" d="M588.727 455.9C614.614 482.662 650.178 502.324 685.154 514.291C690.363 516.073 695.909 517.549 701.004 519.555L701.436 519.728C696.766 521.526 686.273 522.803 680.755 524.201C678.336 524.2 675.399 524.065 673.132 523.264C643.101 512.653 603.836 483.472 588.727 455.9Z"/><path fill="#0AD9D9" d="M354.922 499.397C362.721 497.504 370.293 496.155 378.051 493.931C405.835 485.965 433.086 474.808 457.028 458.436C460.23 456.247 463.387 453.676 466.603 451.586C446.936 475.356 419.77 492.681 391.389 504.171C378.485 507.91 367.385 503.957 354.922 499.397Z"/><path fill="#0AD9D9" d="M582.114 461.359C582.382 460.933 583.337 459.846 583.708 459.399C598.302 478.458 610.238 492.186 630.288 505.895C636.694 510.281 643.3 514.369 650.083 518.146C652.725 519.617 662.385 524.525 663.609 526.357C656.537 527.142 648.442 528.637 641.597 527.257C636.275 523.937 632.089 522.258 626.422 518.154C605.985 503.354 592.198 484.104 582.114 461.359Z"/><path fill="#0AD9D9" d="M396.963 507.241C398.453 506.961 406.048 502.6 408.037 501.679C432.454 490.379 459.413 469.205 475.743 447.573C467.611 468.1 454.034 488.167 435.619 500.81C433.033 502.586 430.469 504.369 427.954 506.246C418.024 511.668 414.194 514.672 402.457 511.206C400.445 510.612 395.72 510.334 394.221 509.19C395.14 508.522 396.017 507.873 396.963 507.241Z"/><path fill="#0AD9D9" d="M281.508 471.467C329.697 478.307 388.369 471.726 434.841 458.162L435.053 459.714C400.195 472.79 369.536 480.577 332 482.141C323.16 482.51 311.482 482.983 302.822 481.949C295.969 480.318 286.985 475.855 281.508 471.467Z"/><path fill="#0AD9D9" d="M570.182 446.59C572.31 451.316 574.48 456.45 576.425 460.909C588.226 487.97 605.906 511.592 630.724 527.939C630.95 528.192 631.176 528.446 631.402 528.7C628.797 529.272 625.73 529.087 623.045 528.876C619.605 528.423 612.88 528.527 609.183 528.478C584.851 510.632 574.673 475.324 570.182 446.59Z"/><path fill="#0AD9D9" d="M455.925 453.591C453.065 457.251 444.715 461.756 440.356 464.24C419.085 476.373 396.093 485.202 372.168 490.425C365.01 492.027 356.952 492.978 350.354 494.488C346.403 495.021 342.245 495.71 338.362 494.67C335.231 493.831 321.33 490.304 319.728 487.899L320.88 487.487C329.747 487.682 345.568 485.692 354.478 484.316C389.101 478.97 425.379 471.379 455.925 453.591Z"/><path fill="#0AD9D9" d="M483.672 444.331C482.59 459.342 470.137 488.5 460.249 500.141C455.507 505.725 450.344 510.385 444.923 515.376C441.537 517.707 429.305 515.514 424.841 514.984L430.557 510.4C451.269 498.71 475.908 466.806 483.672 444.331Z"/><path fill="#0AD9D9" d="M564.657 444.485C570.526 475.806 578.03 503.216 599.001 528.09C593.179 527.741 585.735 526.263 579.883 525.253C579.024 524.767 579.163 525.015 577.806 525.129C568.47 498.51 563.781 472.859 564.657 444.485Z"/><path fill="#0AD9D9" d="M487.235 450.597C488.846 467.092 478.543 503.092 471.12 518.152L470.56 517.471C471.046 515.844 471.149 516.551 470.78 515.152C464.182 515.458 457.622 516.603 451.006 516.469C468.5 499.987 482.026 474.067 487.235 450.597Z"/><path fill="#199BB5" d="M508.727 547.142C512.296 525.686 513.92 496.068 515.982 474.011L516.505 473.567L516.457 472.799C518.49 484.831 508.328 548.127 510.732 551.93C513.718 556.653 523.887 544.819 531.088 546.148C535.155 546.898 537.052 549.783 539.259 552.932C538.422 547.781 538.264 540.012 538.006 534.632C537.431 522.899 536.99 511.161 536.683 499.419C536.568 495.974 535.756 483.754 536.211 481.416L536.395 481.509C537.886 485.942 537.848 496.811 538.127 502.147C539.208 519.726 539.864 537.329 540.094 554.94C543.121 554.778 546.123 554.947 549.153 555.058C552.604 557.303 560.838 567.189 566.187 563.196C566.727 562.792 567.767 561.742 567.602 561.057C566.161 555.1 564.018 549.267 562.358 543.357C559.439 533.053 550.756 497.787 551.568 488.816C552.809 490.487 557.441 520.129 558.875 525.001C562.055 535.804 563.822 548.592 568.851 559.156L569.168 559.813C580.396 555.882 580.219 564.02 594.493 557.246C586.892 545.789 582.737 537.915 577.806 525.129C579.163 525.015 579.024 524.767 579.883 525.253C580.981 533.433 591.763 550.147 596.43 557.441C583.278 565.369 586.27 560.373 572.962 560.808C569.251 560.93 566.132 566.876 560.628 565.286C555.021 563.667 553.536 559.994 549.371 556.936C545.412 556.286 543.195 556.127 539.125 556.18C528.516 534.323 521.22 559.066 510.128 553.377C507.977 548.729 505.935 543.852 503.834 539.149C505.994 542.035 507.232 543.876 508.727 547.142Z"/><path fill="#199BB5" d="M496.514 472.739C496.693 490.364 483.158 519.813 477.866 536.817C476.426 541.444 470.684 550.144 471.321 554.533C478.334 560.765 494.641 526.716 503.574 539.014L503.225 539.452C500.378 537.784 499.231 537.901 495.995 538.508C489.872 541.822 486.044 546.189 482.15 551.987C474.12 560.091 470.142 557.915 468.228 547.733C463.858 547.978 451.748 549.248 448.739 545.721C448.672 544.86 448.483 544.302 449.226 543.616C458.049 535.471 464.602 528.139 470.56 517.471L471.12 518.152C463.9 532.402 459.775 534.566 449.255 545.596C451.432 546.032 453.228 546.415 455.461 546.479C462.498 546.682 465.901 544.034 470.972 549.763C473.916 544.192 476.553 537.063 478.803 531.125C483.137 519.98 486.961 508.643 490.263 497.15C492.534 489.038 494.263 480.774 496.514 472.739Z"/><path fill="#277C8E" d="M621.29 466.437C616.323 463.773 612.591 461.559 608.133 458.109C613.034 460.246 617.865 462.438 622.498 465.116L621.29 466.437Z"/><path fill="#199BB5" d="M577.685 449.791C579.758 452.952 581.766 456.155 583.708 459.399C583.337 459.846 582.382 460.933 582.114 461.359C580.224 457.569 579.041 453.785 577.685 449.791Z"/><path fill="#199BB5" d="M444.141 455.419C441.626 457.503 438.146 458.668 435.053 459.714L434.841 458.162L444.141 455.419Z"/><path fill="#199BB5" d="M595.924 455.621C599.107 457.432 601.173 458.802 604.179 460.911L602.859 462.097C600.447 459.979 598.236 457.844 595.924 455.621Z"/><path fill="#0AD9D9" d="M752.382 431.47C755.1 431.252 769.823 440.992 773.251 443.136C728.923 461.515 679.657 463.219 632.524 456.864C628.971 456.315 613.417 453.972 611.417 452.165C612.475 452.383 612.579 452.352 613.652 452.438C661.555 456.272 708.175 451.738 752.382 431.47Z"/><path fill="#0AD9D9" d="M632.83 460.837C679.387 465.844 734.25 465.215 778.326 447.597C782.728 452.154 785.754 455.766 789.513 460.872C753.44 478.496 671.203 473.51 632.999 462.565L632.83 460.837Z"/><path fill="#0AD9D9" d="M265.566 428.202C308.382 446.915 368.334 455.379 414.627 451.635C417.321 452.635 417.713 450.843 421.221 453.025C414.601 454.487 404.78 455.597 397.968 456.314C358.469 460.476 317.284 458.384 278.703 448.75C272.211 446.902 264.936 445.335 258.989 442.159C253.181 439.057 262.897 430.912 265.566 428.202Z"/><path fill="#0AD9D9" d="M688.144 409.338C692.662 409.865 711.476 415.568 716.461 417.136C687.882 436.056 652.36 442.794 618.625 442.591C608.479 442.488 597.996 441.997 588.024 440.047C595.488 439.353 605.961 438.502 613.245 437.077C635.408 432.741 670.695 423.613 688.144 409.338Z"/><path fill="#0AD9D9" d="M289.119 413.619C324.271 439.456 379.365 444.863 421.777 446.584C423.306 446.808 425.461 446.905 426.543 447.829C415.45 449.554 395.415 449.605 384.141 449.023C346.847 447.1 304.892 441.44 271.503 423.737C277.389 419.417 282.546 416.756 289.119 413.619Z"/><path fill="#0AD9D9" d="M343.739 398.726C371.905 420.49 421.832 434.047 456.985 435.562L457.019 436.534C414.696 442.738 356.323 426.607 320.198 403.997L343.739 398.726Z"/><path fill="#0AD9D9" d="M352.427 397.026C362.456 394.939 372.54 393.127 382.667 391.593C406.214 415.79 435.592 423.746 467.397 430.669C465.974 431.296 466.036 431.35 464.527 431.702C421.925 429.699 387.84 422.129 352.427 397.026Z"/><path fill="#0AD9D9" d="M422.379 386.215C422.722 386.129 424.475 386.022 424.499 386.046C425.255 386.798 426.892 389.207 427.426 389.98C430.988 395.182 435.038 400.11 439.931 404.123C448.969 411.535 459.272 417.288 470.045 421.762C476.45 424.422 483.122 426.277 489.792 428.156C479.794 427.953 470.195 427.214 460.377 425.208C436.465 420.106 407.17 407.795 390.14 390.281C400.821 389.089 411.578 387.425 422.379 386.215Z"/><path fill="#0AD9D9" d="M313.177 406.103C313.99 406.266 318.645 409.107 319.721 409.796C330.582 416.748 341.571 421.199 353.777 425.439C378.126 434.037 403.55 439.221 429.323 440.841C434.696 441.13 440.078 441.203 445.456 441.058C447.997 440.99 452.089 440.482 454.362 440.741L453.962 441.163C448.454 441.759 444.245 442.588 438.427 442.931C396.445 444.531 329.405 437.659 295.068 411.486C301.37 409.128 306.71 407.648 313.177 406.103Z"/><path fill="#0AD9D9" d="M724.461 419.972C732.164 422.43 739.371 424.912 746.772 428.203C738.348 432.416 728.01 437.192 718.944 439.82C694.671 446.856 648.241 453.285 623.687 449.6C624.483 448.083 624.631 448.017 625.759 446.799C665.958 443.859 688.466 437.825 724.461 419.972Z"/><path fill="#0AD9D9" d="M646.386 468.153C694.098 477.595 744.494 480.487 791.748 467.201C790.729 471.697 790.294 474.494 787.976 478.513C756.294 494.496 679.987 481.225 647.321 470.397C646.339 470.071 645.36 469.739 644.383 469.4C645.42 468.485 645.09 468.752 646.386 468.153Z"/><path fill="#0AD9D9" d="M463.439 382.21L469.305 381.934C470.633 399.814 484.195 416.874 499.738 424.962C488.408 423.841 483.224 422.018 472.582 418.018C456.061 411.215 439.686 401.143 430.725 385.165C439.583 383.476 454.378 382.772 463.439 382.21Z"/><path fill="#0AD9D9" d="M652.151 399.892C662.12 402.13 672.025 404.645 681.855 407.433C651.374 426.01 616.6 435.941 580.773 434.389L580.726 432.239C608.308 426.982 630.482 418.529 652.151 399.892Z"/><path fill="#0AD9D9" d="M509.114 380.998C518.886 380.982 529.811 381.235 539.53 382.072C538.733 396.796 538.332 403.871 531.403 416.965C524.437 426.961 521.279 426.534 515.609 416.212C509.135 404.427 509.417 393.934 509.114 380.998Z"/><path fill="#0AD9D9" d="M617.778 392.113C626.778 393.961 635.743 395.972 644.67 398.145C628.103 413.896 608.39 421.342 586.691 427.138C582.361 427.926 566.525 430.143 562.736 428.977C562.772 428.757 562.807 428.537 562.843 428.317C565.587 427.588 570.422 425.337 572.631 424.391C592.913 415.71 603.233 408.455 617.778 392.113Z"/><path fill="#0AD9D9" d="M478.36 381.222C486.116 380.731 495.823 380.901 503.631 380.92C504.466 392.1 504.103 402.83 508.115 413.631C509.09 416.256 513.135 421.585 512.11 423.664L509.934 423.418C494.916 419.583 483.306 407.486 477.315 393.433C476.098 390.578 474.279 385.198 474.315 382.166C475.398 381.163 476.503 381.418 478.36 381.222Z"/><path fill="#0AD9D9" d="M544.194 382.358C553.693 382.631 567.217 384.26 576.932 385.141C570.815 398.036 566.882 404.084 556.189 413.333C549.221 419.245 542.007 421.958 533.391 424.42C543.221 407.029 543.657 401.874 544.194 382.358Z"/><path fill="#0AD9D9" d="M581.373 385.825C591.27 387.802 602.08 389.382 612.092 391.036C600.667 404.313 588.468 413.377 572.124 419.749C562.929 423.287 556.237 424.551 546.73 425.949C565.658 416.264 573.496 404.935 581.373 385.825Z"/><path fill="#19C8DD" d="M623.687 449.6C619.483 449.475 599.949 447.578 597.26 445.776C599.241 446.419 622.21 446.823 625.759 446.799C624.631 448.017 624.483 448.083 623.687 449.6Z"/><path fill="#199BB5" d="M414.627 451.635C418.009 451.348 436.876 449.48 439.068 450.438C435.384 451.197 424.851 452.859 421.221 453.025C417.713 450.843 417.321 452.635 414.627 451.635Z"/><path fill="#277C8E" d="M421.777 446.584C428.396 446.42 434.654 446 441.315 446.083L441.446 446.499C438.252 447.327 430.448 447.435 426.543 447.829C425.461 446.905 423.306 446.808 421.777 446.584Z"/><path fill="#199BB5" d="M634.985 465.763L646.386 468.153C645.09 468.752 645.42 468.485 644.383 469.4C641.799 468.945 637.343 466.874 634.985 465.763Z"/><path fill="#199BB5" d="M632.999 462.565C629.777 461.67 626.822 460.947 623.764 459.577C626.792 459.937 629.841 460.245 632.83 460.837L632.999 462.565Z"/><path fill="#199BB5" d="M467.397 430.669C470.312 430.869 473.223 431.125 476.128 431.434C471.934 432.177 468.794 432.164 464.527 431.702C466.036 431.35 465.974 431.296 467.397 430.669Z"/><path fill="#19C8DD" d="M572.133 433.714C574.954 433.129 577.876 432.7 580.726 432.239L580.773 434.389L572.133 433.714Z"/><path fill="#28333E" d="M441.315 446.083C443.293 445.559 446.415 444.754 448.317 445.475C446.874 446.803 443.396 446.543 441.446 446.499L441.315 446.083Z"/><path fill="#2F545B" d="M456.985 435.562C458.929 435.506 460.944 435.243 462.704 435.967C461.508 436.841 458.601 436.611 457.019 436.534L456.985 435.562Z"/><path fill="#28333E" d="M482.15 551.987C486.044 546.189 489.872 541.822 495.995 538.508C502.418 543.341 499.811 544.696 502.559 549.699C505.835 567.714 507.165 586.028 506.528 604.326C506.421 608.469 504.82 620.153 505.121 622.857C507.703 620.408 509.559 618.773 512.343 616.562C509.691 620.722 507.61 621.913 504.34 625.436C504.044 646.716 498.939 664.273 492.395 684.416C471.535 748.629 431.186 808.609 377.738 850.146C372.075 854.546 360.368 859.806 356.553 865.045C335.662 853.277 335.669 835.807 345.646 816.465C359.437 789.727 383.283 780.433 403.078 760.948C446.863 717.848 471.596 656.088 482.035 596.423C485.321 577.895 487.393 565.167 487.848 546.286C485.953 548.419 484.451 550.257 482.15 551.987Z"/><path fill="#F8B158" d="M481.35 709.856C479.719 712.052 472.94 717.802 470.355 720.365C465.482 725.197 460.311 732.234 454.902 735.971C451.525 738.304 443.233 740.094 439.814 743.214C433.828 748.678 428.127 757.64 423.209 764.259C409.318 782.953 393.639 784.724 375.481 794.24L375.049 794.47C379.847 788.88 396.068 784.204 403.056 779.947C411.395 774.868 415.637 770.472 421.868 762.968C432.507 750.153 435.924 734.85 444.285 720.861C452.457 707.188 463.734 695.47 470.344 680.761C474.975 670.455 473.772 659.401 477.062 648.98C479.977 639.747 486.236 631.599 488.842 621.957C491.028 613.873 491.038 605.805 492.247 597.791C493.495 589.517 497.094 576.903 501.392 569.97C501.346 572.072 496.004 585.617 495.085 589.765C492.66 600.712 493.106 611.777 490.013 622.481C487.937 629.667 484.618 636.15 481.153 642.645C496.904 633.687 493.198 637.41 505.121 622.857C507.703 620.408 509.559 618.773 512.343 616.562C509.691 620.722 507.61 621.913 504.34 625.436C497.298 634.875 497.509 636.535 486.477 640.911C474.799 645.542 477.315 667.66 473.572 678.134C468.253 693.012 457.228 704.536 448.782 717.652C443.037 726.512 439.146 735.019 435.489 744.743C442.831 738.828 450.574 737.484 454.871 733.945C465.994 724.785 467.883 718.299 481.35 709.856Z"/><path fill="#28333E" d="M552.654 577.625C553.095 612.904 539.961 680.183 525.346 712.64C525.929 709.308 526.156 706.323 525.825 702.959C526.257 700.142 526.639 697.314 527.316 694.547C527.731 691.301 527.963 689.644 528.793 686.451C529.257 681.681 532.795 672.322 534.171 667.2C536.485 658.585 537.497 652.28 538.508 643.614L539.149 643.872L539.906 643.294C541.386 639.656 541.773 635.649 542.051 631.755C542.666 628.286 543.502 624.82 544.242 621.37C547.358 606.843 549.487 592.137 552.654 577.625Z"/><path d="M528.793 686.451C530.07 684.77 530.224 684.306 530.836 682.269L531.689 682.151C532.966 685.161 530.146 692.056 528.074 694.315L527.316 694.547C527.731 691.301 527.963 689.644 528.793 686.451Z"/><path fill="#875312" fill-opacity="0.98431373" d="M529.105 602.991L529.544 609.151C529.077 618.19 527.618 629.624 524.974 638.165C522.82 645.124 518.775 653.868 517.579 660.97C514.614 678.569 516.579 693.567 508.544 710.539C502.632 723.027 491.144 730.375 485.804 742.358C481.701 751.567 481.589 763.767 477.421 773.369C472.448 784.825 461.458 787.35 453.581 796.071C442.841 807.962 426.951 835.854 411.944 841.472C421.028 834.313 429.12 825.98 436.011 816.691C441.47 809.274 447.686 799.921 453.98 793.356C455.957 791.294 463.947 785.72 466.83 783.801C481.19 774.241 478.09 756.834 484.344 742.144C490.103 728.617 501.308 722.3 507.545 708.911C514.993 692.924 513.533 679.007 516.162 662.414C517.777 652.222 522.858 641.949 525.274 631.86C527.528 622.445 527.537 612.541 529.105 602.991Z"/><path fill="#875312" fill-opacity="0.98431373" d="M525.825 702.959C526.156 706.323 525.929 709.308 525.346 712.64C511.121 766.908 474.7 830.116 426.896 861.443C422.379 864.404 403.922 874.011 398.747 873.254C406.496 870.389 415.498 867.276 422.565 862.73C472.181 830.818 503.173 776.331 521.041 721.409C523.014 715.345 524.296 709.02 525.825 702.959Z"/><path d="M529.105 602.991C529.345 599.218 531.206 580.853 532.762 578.242C533.168 580.166 530.18 605.651 529.544 609.151L529.105 602.991Z"/><path d="M538.508 643.614C538.708 640.696 538.423 627.929 539.295 626.999C540.189 629.733 539.565 632.488 540.362 635.442C541.432 634.461 541.506 633.348 542.051 631.755C541.773 635.649 541.386 639.656 539.906 643.294L539.149 643.872L538.508 643.614Z"/></svg>